<svg width="20" height="20" viewBox="0 0 20 20" fill="none" xmlns="http://www.w3.org/2000/svg">
<g clip-path="url(#clip0_7401_12267)">
<path d="M14.3704 15.7845C14.5657 15.9797 14.8822 15.9797 15.0775 15.7845L15.7846 15.0773C15.9799 14.8821 15.9799 14.5655 15.7846 14.3702C15.5893 14.175 15.2728 14.175 15.0775 14.3702L14.3704 15.0773C14.1751 15.2726 14.1751 15.5892 14.3704 15.7845ZM5.05662 15.0774C4.86136 15.2726 4.86136 15.5892 5.05662 15.7845C5.25188 15.9797 5.56846 15.9797 5.76372 15.7845L15.7846 5.76363C15.9799 5.56836 15.9799 5.25178 15.7846 5.05652C15.5893 4.86126 15.2727 4.86126 15.0775 5.05652L5.05662 15.0774ZM9.71354 15.7845C9.9088 15.9797 10.2254 15.9797 10.4206 15.7845L15.7846 10.4205C15.9799 10.2252 15.9799 9.90865 15.7846 9.71339C15.5893 9.51813 15.2728 9.51813 15.0775 9.71339L9.71354 15.0773C9.51828 15.2726 9.51828 15.5892 9.71354 15.7845Z" fill="#CCCCCC"/>
</g>
<defs>
<clipPath id="clip0_7401_12267">
<rect width="20" height="20" fill="white"/>
</clipPath>
</defs>
</svg>
